<svg version="1.1" id="Layer_1" xmlns="http://www.w3.org/2000/svg" xmlns:xlink="http://www.w3.org/1999/xlink" x="0px" y="0px"
	 width="100%" viewBox="0 0 512 512" enable-background="new 0 0 512 512" xml:space="preserve">
<path fill="#FFFFFF" opacity="0" stroke="none" 
	d="
M0.999997,249.000000 
	C1.000000,166.406143 1.000000,83.812286 1.000000,1.000000 
	C83.687431,1.000000 166.375061,1.000000 249.386932,1.335517 
	C237.424927,5.360748 230.017288,15.225107 230.003601,27.967760 
	C229.988022,42.465229 229.881653,56.963932 230.029800,71.459900 
	C230.217148,89.790413 246.669983,102.613899 265.224579,97.273010 
	C276.216461,94.109032 283.991943,83.237144 283.998169,71.729538 
	C284.005829,57.565334 283.976196,43.401073 284.008728,29.236940 
	C284.028992,20.416622 281.573608,12.587133 274.389801,7.033243 
	C271.249023,4.605042 267.482422,2.986324 264.000000,1.000001 
	C346.927032,1.000000 429.854095,1.000000 513.000000,1.000000 
	C513.000000,83.687431 513.000000,166.375061 512.664429,249.386963 
	C508.639526,237.425156 498.774872,230.017273 486.032257,230.003601 
	C471.534760,229.988022 457.036041,229.881638 442.540070,230.029800 
	C424.209534,230.217163 411.386139,246.670074 416.726959,265.224548 
	C419.890961,276.216492 430.762726,283.991913 442.270416,283.998169 
	C456.434631,284.005829 470.598907,283.976227 484.763031,284.008728 
	C493.583344,284.028992 501.412903,281.573700 506.966797,274.389832 
	C509.394989,271.249054 511.013702,267.482422 513.000000,264.000000 
	C513.000000,346.927032 513.000000,429.854095 513.000000,513.000000 
	C430.312561,513.000000 347.624939,513.000000 264.613037,512.664490 
	C276.575378,508.639008 283.982758,498.774902 283.996399,486.032196 
	C284.011932,471.534698 284.118347,457.035980 283.970154,442.540009 
	C283.782776,424.209625 267.330048,411.386139 248.775406,416.727081 
	C237.783493,419.891022 230.008118,430.762695 230.001862,442.270508 
	C229.994156,456.434723 230.023788,470.598999 229.991272,484.763123 
	C229.971008,493.583435 232.426346,501.412994 239.610245,506.966766 
	C242.751068,509.394928 246.517609,511.013672 250.000000,513.000000 
	C167.073105,513.000000 84.146210,513.000000 1.000000,513.000000 
	C1.000000,430.645905 1.000000,348.291595 1.328712,265.599457 
	C6.987384,278.735046 17.088497,284.415405 31.338192,284.067108 
	C44.307941,283.750092 57.302311,283.666687 70.266281,284.085419 
	C86.036606,284.594818 99.950195,270.964325 98.344070,253.827881 
	C97.274155,242.412399 84.946167,229.794708 72.056595,229.956787 
	C57.251274,230.142960 42.439610,229.848770 27.635109,230.065002 
	C20.429844,230.170227 13.564384,231.994949 8.725907,237.873596 
	C5.866074,241.348221 3.556833,245.276001 0.999997,249.000000 
M273.366272,379.997955 
	C274.798126,379.671021 276.214050,379.196289 277.664276,379.040222 
	C291.371155,377.565002 304.131470,372.769409 315.984711,366.252838 
	C339.113739,353.537170 356.872375,335.445312 368.394287,311.314697 
	C380.877625,285.170532 384.258179,258.133331 377.976532,229.908112 
	C372.725433,206.313354 361.467987,185.990326 344.385742,168.848907 
	C332.998535,157.422302 319.761047,148.740021 304.971924,142.573120 
	C290.043701,136.348206 274.410278,132.732101 258.135559,133.085281 
	C250.759857,133.245316 243.362350,134.025101 236.047089,135.043442 
	C212.703751,138.293030 192.500778,148.663422 174.859436,163.832321 
	C162.170700,174.742706 152.324814,188.081589 145.212921,203.374344 
	C135.229233,224.842331 131.134583,247.134583 133.877136,270.827332 
	C136.358368,292.262665 143.814194,311.573792 156.037155,329.204376 
	C167.137283,345.215393 181.530914,357.776520 198.631592,366.622375 
	C221.689590,378.549866 246.380737,383.674103 273.366272,379.997955 
M146.993423,125.989632 
	C146.996689,118.610947 148.154068,110.839874 142.335083,104.903618 
	C130.044159,92.364952 117.966499,79.565689 104.981354,67.776497 
	C95.732437,59.379425 81.070045,60.632404 71.770355,68.774788 
	C59.217316,79.765671 59.183735,97.386292 71.111702,109.565086 
	C80.783463,119.440216 90.655182,129.119293 100.409737,138.913666 
	C108.835365,147.373688 119.117180,149.239975 129.948212,145.775696 
	C138.853943,142.927200 144.294006,135.883957 146.993423,125.989632 
M382.499817,93.000168 
	C378.810181,97.020317 374.936371,100.888588 371.469330,105.092316 
	C364.302094,113.782318 364.918549,131.297485 374.800262,140.229599 
	C385.759918,150.136078 402.950745,149.671616 413.556091,138.959122 
	C423.638428,128.774933 433.877869,118.745781 443.923920,108.526245 
	C451.575165,100.742859 454.003448,86.845222 449.489563,78.044037 
	C440.256897,60.042194 418.175201,57.437721 404.570343,70.943779 
	C397.356445,78.105278 390.188599,85.313148 382.499817,93.000168 
M140.040970,412.438171 
	C147.011124,404.707916 148.845367,395.483063 146.216934,385.826752 
	C140.540039,364.971008 114.635750,361.047089 101.120964,374.397675 
	C91.286072,384.113037 81.728882,394.115295 71.735130,403.662231 
	C62.789989,412.207550 58.607456,427.266998 66.856735,439.715271 
	C71.037560,446.024231 83.007446,452.807922 89.852188,451.947449 
	C98.263695,450.889984 105.359268,447.445709 111.322571,441.266632 
	C120.574265,431.680145 130.124817,422.382080 140.040970,412.438171 
M391.000000,429.500000 
	C395.478699,433.976685 399.839752,438.578918 404.459625,442.904846 
	C415.318176,453.072479 425.978027,453.843658 435.906281,449.245850 
	C454.261780,440.745331 456.626099,417.863220 442.681763,404.151031 
	C433.414215,395.037781 424.246948,385.821472 415.107727,376.579193 
	C408.686157,370.085236 401.431152,366.413727 391.859711,366.849640 
	C381.102112,367.339569 373.596619,372.589294 369.362762,381.657654 
	C365.085022,390.820068 364.859619,400.739014 371.754456,409.079071 
	C377.552155,416.092072 384.218323,422.387085 391.000000,429.500000 
z"/>
<path fill="#F0C419" opacity="1.000000" stroke="none" 
	d="
M0.999997,249.466858 
	C3.556833,245.276001 5.866074,241.348221 8.725907,237.873596 
	C13.564384,231.994949 20.429844,230.170227 27.635109,230.065002 
	C42.439610,229.848770 57.251274,230.142960 72.056595,229.956787 
	C84.946167,229.794708 97.274155,242.412399 98.344070,253.827881 
	C99.950195,270.964325 86.036606,284.594818 70.266281,284.085419 
	C57.302311,283.666687 44.307941,283.750092 31.338192,284.067108 
	C17.088497,284.415405 6.987384,278.735046 1.328712,265.130798 
	C1.000000,259.977905 1.000000,254.955811 0.999997,249.466858 
z"/>
<path fill="#F0C419" opacity="1.000000" stroke="none" 
	d="
M263.535339,1.000001 
	C267.482422,2.986324 271.249023,4.605042 274.389801,7.033243 
	C281.573608,12.587133 284.028992,20.416622 284.008728,29.236940 
	C283.976196,43.401073 284.005829,57.565334 283.998169,71.729538 
	C283.991943,83.237144 276.216461,94.109032 265.224579,97.273010 
	C246.669983,102.613899 230.217148,89.790413 230.029800,71.459900 
	C229.881653,56.963932 229.988022,42.465229 230.003601,27.967760 
	C230.017288,15.225107 237.424927,5.360748 249.855591,1.335517 
	C254.356903,1.000000 258.713806,1.000000 263.535339,1.000001 
z"/>
<path fill="#F0C419" opacity="1.000000" stroke="none" 
	d="
M513.000000,263.535339 
	C511.013702,267.482422 509.394989,271.249054 506.966797,274.389832 
	C501.412903,281.573700 493.583344,284.028992 484.763031,284.008728 
	C470.598907,283.976227 456.434631,284.005829 442.270416,283.998169 
	C430.762726,283.991913 419.890961,276.216492 416.726959,265.224548 
	C411.386139,246.670074 424.209534,230.217163 442.540070,230.029800 
	C457.036041,229.881638 471.534760,229.988022 486.032257,230.003601 
	C498.774872,230.017273 508.639526,237.425156 512.664429,249.855621 
	C513.000000,254.356903 513.000000,258.713806 513.000000,263.535339 
z"/>
<path fill="#F0C419" opacity="1.000000" stroke="none" 
	d="
M250.464661,513.000000 
	C246.517609,511.013672 242.751068,509.394928 239.610245,506.966766 
	C232.426346,501.412994 229.971008,493.583435 229.991272,484.763123 
	C230.023788,470.598999 229.994156,456.434723 230.001862,442.270508 
	C230.008118,430.762695 237.783493,419.891022 248.775406,416.727081 
	C267.330048,411.386139 283.782776,424.209625 283.970154,442.540009 
	C284.118347,457.035980 284.011932,471.534698 283.996399,486.032196 
	C283.982758,498.774902 276.575378,508.639008 264.144409,512.664490 
	C259.643097,513.000000 255.286194,513.000000 250.464661,513.000000 
z"/>
<path fill="#F0C419" opacity="1.000000" stroke="none" 
	d="
M272.915070,379.999023 
	C246.380737,383.674103 221.689590,378.549866 198.631592,366.622375 
	C181.530914,357.776520 167.137283,345.215393 156.037155,329.204376 
	C143.814194,311.573792 136.358368,292.262665 133.877136,270.827332 
	C131.134583,247.134583 135.229233,224.842331 145.212921,203.374344 
	C152.324814,188.081589 162.170700,174.742706 174.859436,163.832321 
	C192.500778,148.663422 212.703751,138.293030 236.047089,135.043442 
	C243.362350,134.025101 250.759857,133.245316 258.135559,133.085281 
	C274.410278,132.732101 290.043701,136.348206 304.971924,142.573120 
	C319.761047,148.740021 332.998535,157.422302 344.385742,168.848907 
	C361.467987,185.990326 372.725433,206.313354 377.976532,229.908112 
	C384.258179,258.133331 380.877625,285.170532 368.394287,311.314697 
	C356.872375,335.445312 339.113739,353.537170 315.984711,366.252838 
	C304.131470,372.769409 291.371155,377.565002 277.664276,379.040222 
	C276.214050,379.196289 274.798126,379.671021 272.915070,379.999023 
z"/>
<path fill="#F0C419" opacity="1.000000" stroke="none" 
	d="
M146.974030,126.428482 
	C144.294006,135.883957 138.853943,142.927200 129.948212,145.775696 
	C119.117180,149.239975 108.835365,147.373688 100.409737,138.913666 
	C90.655182,129.119293 80.783463,119.440216 71.111702,109.565086 
	C59.183735,97.386292 59.217316,79.765671 71.770355,68.774788 
	C81.070045,60.632404 95.732437,59.379425 104.981354,67.776497 
	C117.966499,79.565689 130.044159,92.364952 142.335083,104.903618 
	C148.154068,110.839874 146.996689,118.610947 146.974030,126.428482 
z"/>
<path fill="#F0C419" opacity="1.000000" stroke="none" 
	d="
M382.749878,92.750130 
	C390.188599,85.313148 397.356445,78.105278 404.570343,70.943779 
	C418.175201,57.437721 440.256897,60.042194 449.489563,78.044037 
	C454.003448,86.845222 451.575165,100.742859 443.923920,108.526245 
	C433.877869,118.745781 423.638428,128.774933 413.556091,138.959122 
	C402.950745,149.671616 385.759918,150.136078 374.800262,140.229599 
	C364.918549,131.297485 364.302094,113.782318 371.469330,105.092316 
	C374.936371,100.888588 378.810181,97.020317 382.749878,92.750130 
z"/>
<path fill="#F0C419" opacity="1.000000" stroke="none" 
	d="
M139.794815,412.699951 
	C130.124817,422.382080 120.574265,431.680145 111.322571,441.266632 
	C105.359268,447.445709 98.263695,450.889984 89.852188,451.947449 
	C83.007446,452.807922 71.037560,446.024231 66.856735,439.715271 
	C58.607456,427.266998 62.789989,412.207550 71.735130,403.662231 
	C81.728882,394.115295 91.286072,384.113037 101.120964,374.397675 
	C114.635750,361.047089 140.540039,364.971008 146.216934,385.826752 
	C148.845367,395.483063 147.011124,404.707916 139.794815,412.699951 
z"/>
<path fill="#F0C419" opacity="1.000000" stroke="none" 
	d="
M390.750000,429.250000 
	C384.218323,422.387085 377.552155,416.092072 371.754456,409.079071 
	C364.859619,400.739014 365.085022,390.820068 369.362762,381.657654 
	C373.596619,372.589294 381.102112,367.339569 391.859711,366.849640 
	C401.431152,366.413727 408.686157,370.085236 415.107727,376.579193 
	C424.246948,385.821472 433.414215,395.037781 442.681763,404.151031 
	C456.626099,417.863220 454.261780,440.745331 435.906281,449.245850 
	C425.978027,453.843658 415.318176,453.072479 404.459625,442.904846 
	C399.839752,438.578918 395.478699,433.976685 390.750000,429.250000 
z"/>
</svg>